<?xml version="1.0" encoding="UTF-8"?>
<!DOCTYPE svg PUBLIC "-//W3C//DTD SVG 1.1//EN" "http://www.w3.org/Graphics/SVG/1.1/DTD/svg11.dtd">
<!-- Creator: CorelDRAW X7 -->
<svg xmlns="http://www.w3.org/2000/svg" xml:space="preserve" width="55.88mm" height="32.766mm" version="1.1" style="shape-rendering:geometricPrecision; text-rendering:geometricPrecision; image-rendering:optimizeQuality; fill-rule:evenodd; clip-rule:evenodd"
viewBox="0 0 5588 3277"
xmlns:xlink="http://www.w3.org/1999/xlink">
	<defs>
		<style type="text/css">
			<![CDATA[
				.fil219 {fill:#02050C}
				.fil226 {fill:#060A14}
				.fil191 {fill:#080609}
				.fil2 {fill:#0C1728}
				.fil133 {fill:#120F17}
				.fil172 {fill:#170809}
				.fil152 {fill:#17151A}
				.fil217 {fill:#181A25}
				.fil113 {fill:#1A242F}
				.fil22 {fill:#1A2F48}
				.fil196 {fill:#27252A}
				.fil202 {fill:#281717}
				.fil70 {fill:#282B35}
				.fil47 {fill:#29364A}
				.fil170 {fill:#2A1B24}
				.fil116 {fill:#2C0F0C}
				.fil77 {fill:#322F36}
				.fil145 {fill:#361B17}
				.fil43 {fill:#37221B}
				.fil69 {fill:#373439}
				.fil57 {fill:#373B45}
				.fil59 {fill:#382727}
				.fil99 {fill:#39434F}
				.fil8 {fill:#394E66}
				.fil139 {fill:#47261A}
				.fil24 {fill:#472A26}
				.fil50 {fill:#473838}
				.fil56 {fill:#484549}
				.fil46 {fill:#484B54}
				.fil52 {fill:#4A1712}
				.fil118 {fill:#4B302D}
				.fil122 {fill:#4B3B45}
				.fil195 {fill:#53443A}
				.fil42 {fill:#555052}
				.fil73 {fill:#562918}
				.fil54 {fill:#572B26}
				.fil39 {fill:#573936}
				.fil81 {fill:#574847}
				.fil177 {fill:#583529}
				.fil89 {fill:#585559}
				.fil124 {fill:#585B64}
				.fil197 {fill:#596570}
				.fil40 {fill:#59708C}
				.fil7 {fill:#5B1727}
				.fil181 {fill:#673629}
				.fil97 {fill:#673A35}
				.fil65 {fill:#674946}
				.fil105 {fill:#675857}
				.fil25 {fill:#684539}
				.fil58 {fill:#686568}
				.fil107 {fill:#69524E}
				.fil156 {fill:#696B74}
				.fil100 {fill:#69778A}
				.fil108 {fill:#6C5B64}
				.fil5 {fill:#6D2F18}
				.fil115 {fill:#6D6358}
				.fil49 {fill:#713547}
				.fil16 {fill:#723330}
				.fil241 {fill:#738FAA}
				.fil82 {fill:#754930}
				.fil64 {fill:#757172}
				.fil102 {fill:#76655A}
				.fil78 {fill:#767C86}
				.fil91 {fill:#773828}
				.fil60 {fill:#774A46}
				.fil129 {fill:#775A57}
				.fil192 {fill:#776967}
				.fil86 {fill:#777579}
				.fil61 {fill:#784738}
				.fil45 {fill:#785548}
				.fil67 {fill:#78838C}
				.fil71 {fill:#7B8796}
				.fil150 {fill:#868C96}
				.fil167 {fill:#874838}
				.fil101 {fill:#874A46}
				.fil53 {fill:#875956}
				.fil126 {fill:#877978}
				.fil149 {fill:#878589}
				.fil141 {fill:#883930}
				.fil98 {fill:#885647}
				.fil48 {fill:#886558}
				.fil203 {fill:#8A929B}
				.fil247 {fill:#8B97A5}
				.fil239 {fill:#8C98AE}
				.fil20 {fill:#8D4C2E}
				.fil33 {fill:#8D6D69}
				.fil29 {fill:#8DA7B7}
				.fil26 {fill:#8F5966}
				.fil83 {fill:#926A53}
				.fil154 {fill:#938579}
				.fil6 {fill:#944E24}
				.fil80 {fill:#954A39}
				.fil28 {fill:#954A4C}
				.fil1 {fill:#967A77}
				.fil173 {fill:#96969A}
				.fil223 {fill:#969CA7}
				.fil27 {fill:#97354C}
				.fil208 {fill:#975847}
				.fil94 {fill:#975A56}
				.fil10 {fill:#982F22}
				.fil90 {fill:#98543A}
				.fil104 {fill:#986758}
				.fil231 {fill:#988786}
				.fil220 {fill:#98A2AB}
				.fil120 {fill:#99644A}
				.fil128 {fill:#997668}
				.fil38 {fill:#99908D}
				.fil227 {fill:#9BA9B8}
				.fil9 {fill:#9F7885}
				.fil214 {fill:#A5B4C6}
				.fil180 {fill:#A65947}
				.fil218 {fill:#A6ACB6}
				.fil114 {fill:#A75839}
				.fil148 {fill:#A76857}
				.fil155 {fill:#A7A6A9}
				.fil127 {fill:#A7B5C3}
				.fil125 {fill:#A86549}
				.fil130 {fill:#A86966}
				.fil158 {fill:#A87768}
				.fil119 {fill:#A89897}
				.fil36 {fill:#A98676}
				.fil206 {fill:#A9B2BA}
				.fil246 {fill:#AB9BA4}
				.fil35 {fill:#AD5334}
				.fil30 {fill:#AE8F8C}
				.fil72 {fill:#AF5550}
				.fil84 {fill:#AF6F70}
				.fil44 {fill:#AF7452}
				.fil109 {fill:#B05668}
				.fil37 {fill:#B2A499}
				.fil183 {fill:#B46639}
				.fil242 {fill:#B5C6D7}
				.fil160 {fill:#B66A57}
				.fil75 {fill:#B68A71}
				.fil175 {fill:#B6AAA7}
				.fil63 {fill:#B6B0AF}
				.fil79 {fill:#B78878}
				.fil138 {fill:#B7B6B9}
				.fil142 {fill:#B86848}
				.fil15 {fill:#B87559}
				.fil112 {fill:#B87767}
				.fil161 {fill:#B87976}
				.fil135 {fill:#B8BCC4}
				.fil3 {fill:#B9835A}
				.fil244 {fill:#B9CEE4}
				.fil162 {fill:#BA9886}
				.fil228 {fill:#BDC1C8}
				.fil211 {fill:#C3C5CA}
				.fil136 {fill:#C6B9B7}
				.fil165 {fill:#C77957}
				.fil157 {fill:#C77967}
				.fil146 {fill:#C7C7C9}
				.fil178 {fill:#C8754A}
				.fil134 {fill:#C88876}
				.fil106 {fill:#C88985}
				.fil140 {fill:#C89887}
				.fil166 {fill:#C8A999}
				.fil215 {fill:#C8D7E8}
				.fil222 {fill:#C9ABA4}
				.fil87 {fill:#CA8668}
				.fil179 {fill:#CA9579}
				.fil0 {fill:#CB6339}
				.fil207 {fill:#CB845B}
				.fil92 {fill:#CCB3A6}
				.fil189 {fill:#CCCDD2}
				.fil19 {fill:#CD7152}
				.fil103 {fill:#CD976C}
				.fil198 {fill:#CDD2D8}
				.fil4 {fill:#CE3246}
				.fil41 {fill:#CE9195}
				.fil17 {fill:#CEABB4}
				.fil147 {fill:#CEC3B7}
				.fil88 {fill:#CF7470}
				.fil32 {fill:#D0AC93}
				.fil68 {fill:#D37489}
				.fil245 {fill:#D398A5}
				.fil243 {fill:#D48D53}
				.fil237 {fill:#D4D4DB}
				.fil240 {fill:#D4E4F3}
				.fil233 {fill:#D5B8A9}
				.fil169 {fill:#D6865A}
				.fil193 {fill:#D68967}
				.fil111 {fill:#D6D0D1}
				.fil199 {fill:#D6D3D8}
				.fil229 {fill:#D6D8E3}
				.fil13 {fill:#D75F65}
				.fil66 {fill:#D78A77}
				.fil11 {fill:#D7CAC7}
				.fil132 {fill:#D88986}
				.fil186 {fill:#D8BBB4}
				.fil151 {fill:#D9946A}
				.fil168 {fill:#D99778}
				.fil110 {fill:#D99896}
				.fil143 {fill:#D99987}
				.fil51 {fill:#D9A9A6}
				.fil85 {fill:#D9C4B7}
				.fil235 {fill:#D9D9DE}
				.fil121 {fill:#DAA796}
				.fil200 {fill:#DBA37A}
				.fil123 {fill:#DBA588}
				.fil14 {fill:#DBE3E7}
				.fil210 {fill:#DCDCE3}
				.fil232 {fill:#DDDDE2}
				.fil234 {fill:#DFE0E5}
				.fil188 {fill:#E1E1E6}
				.fil62 {fill:#E48B59}
				.fil212 {fill:#E49977}
				.fil23 {fill:#E4E3E4}
				.fil236 {fill:#E4E5EA}
				.fil144 {fill:#E5926D}
				.fil137 {fill:#E59988}
				.fil176 {fill:#E5A997}
				.fil163 {fill:#E6A57A}
				.fil205 {fill:#E6A888}
				.fil117 {fill:#E6D9D7}
				.fil34 {fill:#E77098}
				.fil174 {fill:#E79997}
				.fil164 {fill:#E8AAA6}
				.fil213 {fill:#E8B499}
				.fil204 {fill:#E8D3CA}
				.fil21 {fill:#E98D8E}
				.fil221 {fill:#E9B6A7}
				.fil201 {fill:#E9E8EB}
				.fil194 {fill:#EAB9B5}
				.fil216 {fill:#EAC5B9}
				.fil95 {fill:#EAC8C5}
				.fil55 {fill:#EBECF2}
				.fil74 {fill:#EC95A9}
				.fil131 {fill:#ECC6AE}
				.fil31 {fill:#EDAAB4}
				.fil93 {fill:#EEE3DB}
				.fil230 {fill:#EFAF8E}
				.fil12 {fill:#F0CAD4}
				.fil18 {fill:#F1B9C6}
				.fil190 {fill:#F2F1F3}
				.fil96 {fill:#F4AAA7}
				.fil225 {fill:#F4B6A7}
				.fil238 {fill:#F4B799}
				.fil187 {fill:#F4BCAC}
				.fil224 {fill:#F4C3B4}
				.fil171 {fill:#F5BAB6}
				.fil153 {fill:#F5F6F8}
				.fil184 {fill:#F6C2AC}
				.fil76 {fill:#F6E9E8}
				.fil209 {fill:#F7C6BA}
				.fil185 {fill:#F7C8C5}
				.fil159 {fill:#F7D3CA}
				.fil182 {fill:#F7D8D6}
			]]>
		</style>
	</defs>
	<g id="Слой_x0020_1">
		<metadata id="CorelCorpID_0Corel-Layer"/>
		<g class="test" id="test">
			<path class="fil236" d="M1850 2890c3,33 -8,34 -8,34 -1,-2 -4,4 -6,5l35 6c-55,11 -5,-3 -30,16 2,3 5,5 6,6 18,19 10,5 4,42 27,5 27,8 39,26 -55,5 -3,-7 -57,-14 10,40 11,17 41,42 -31,15 -30,-6 -68,22 24,1 48,-3 82,-2l7 46c0,0 77,76 103,74l-59 22 24 -39c-47,-2 -36,-1 -76,-18 13,56 -3,19 0,64 1,-2 2,-4 3,-5 44,-20 28,3 31,5 -33,16 -18,1 -33,23l85 7 15 29 805 0 24 -30c1,-1 3,-3 4,-4 27,-26 40,-31 55,-77l5 -25 -42 -1c18,-27 10,-7 -2,-23l-28 25c-15,-46 3,-9 14,-43 7,-21 5,-47 -13,-49 25,-14 19,-6 30,-27 -12,-13 -2,-12 -22,-18 -20,-6 -7,-1 -31,1 -27,13 -17,6 -19,34 -61,-12 -43,16 -110,7l19 -34c27,12 7,-8 22,17 7,-4 -2,-2 20,-8 3,0 12,0 17,0 -14,-25 -12,-20 -45,-19 4,-25 5,-24 3,-28l-24 10c-16,8 -1,17 -24,5 24,-40 53,-14 81,-34 -5,-4 -7,-13 -41,-11 -24,1 -24,4 -43,12l1 -9c1,-12 5,2 -1,-13 -60,2 -16,24 -72,7 23,-7 13,-1 16,-40l-43 12 -4 0c-20,41 -31,64 -72,93 1,1 3,3 3,4 1,1 3,4 3,5l5 16c-15,5 -5,1 -13,8 -23,-35 21,9 -17,-10 -12,15 -19,26 -32,38 -17,16 -1,3 -20,14 -22,14 -1,-6 -20,14 -2,2 -67,67 -74,52 -1,-1 -3,1 -5,2 23,21 16,3 27,38 -27,-6 -17,-7 -37,-5 -8,50 4,16 7,58 -32,-8 -11,-15 -45,-23l2 -24c29,-9 3,12 30,-10 -18,-29 -17,-5 -30,-34l27 -37c-35,-13 0,9 -13,-10l-30 1c-18,13 -3,8 -33,8l7 38c-17,-4 -15,-4 -28,-4l-10 4c20,17 17,9 25,40 -39,-12 -43,-6 -45,-48l-32 -9 41 -13 -24 -19c7,-11 10,-16 17,-27 -45,-13 -26,-26 -86,-37 6,-7 2,-4 11,-12l15 -10c-51,-3 -16,3 -38,-38 -18,-33 -10,-5 -21,-48l-27 0c-10,30 -5,19 -23,29 -32,-15 -11,-19 -43,-27 16,-65 28,33 32,-68 -77,16 -9,-2 -49,38 -48,-25 -1,-30 -75,-15z"/>
		</g>
	</g>
</svg>
